#N canvas 796 82 479 371 10;
#X declare -stdpath cyclone -lib cyclone;
#X declare -stdpath zexy -lib zexy;
#X declare -lib pof;
#X declare -path bin/data/pd -path bin/data/pd/abs;
#X declare -path ../;
#X declare -path ../;
#X declare -path ../;
#X declare -path ../;
#X declare -path ../;
#X declare -path ../;
#X declare -path abs -path .;
#X obj 24 13 declare -stdpath cyclone -lib cyclone;
#X obj 24 33 declare -stdpath zexy -lib zexy;
#X obj 24 53 declare -lib pof;
#X obj 26 146 loadbang;
#X msg 26 171 \; pd-pof_main.pd vis 1;
#X obj 170 186 pofwin;
#N canvas 749 411 307 150 bang_on_first_frame 0;
#X obj 54 49 pofbang 1;
#X obj 54 26 pofhead;
#X msg 105 76 0;
#X obj 143 76 outlet;
#X connect 0 1 2 0;
#X connect 0 1 3 0;
#X connect 1 0 0 0;
#X connect 2 0 0 0;
#X restore 170 106 pd bang_on_first_frame;
#X msg 170 128 window 800 600 0 \, framerate 25 \, background 0 0 0
;
#X obj 24 74 declare -path bin/data/pd -path bin/data/pd/abs;
#X obj 323 224 cputime;
#X floatatom 325 256 5 0 0 0 - - -, f 5;
#X obj 248 236 iemlib/dsp;
#X floatatom 246 261 5 0 0 0 - - -, f 5;
#X obj 25 115 pof_main;
#X text 163 304 rien menu_song playing player_switched fx_none;
#X text 63 324 portable_ant1 : 76 85 82 45 50;
#X connect 3 0 4 0;
#X connect 6 0 7 0;
#X connect 7 0 5 0;
#X connect 9 0 10 0;
#X connect 11 0 12 0;
